<?xml version="1.0" encoding="utf-8"?>

<!DOCTYPE svg PUBLIC "-//W3C//DTD SVG 1.1//EN" "http://www.w3.org/Graphics/SVG/1.1/DTD/svg11.dtd">
<!-- Uploaded to: SVG Repo, www.svgrepo.com, Generator: SVG Repo Mixer Tools -->
<svg height="800px" width="800px" version="1.1" id="_x32_" xmlns="http://www.w3.org/2000/svg" xmlns:xlink="http://www.w3.org/1999/xlink" 
	 viewBox="0 0 512 512"  xml:space="preserve">
<style type="text/css">
	.st0{fill:#000000;}
</style>
<g>
	<path class="st0" d="M275.227,161.553l-34.01,0.008c-2.225,0-4.119,0.632-5.712,1.894l-23.796,14.48
		c-1.582,1.278-2.214,2.534-2.214,4.443l0.01,39.322c0,2.548,1.579,3.172,3.488,1.895l21.897-11.926h0.628l0.04,140.429
		c0,1.895,1.274,3.158,3.176,3.158l36.55-0.007c1.909,0,3.169-1.271,3.169-3.165l-0.056-187.374
		C278.399,162.809,277.136,161.553,275.227,161.553z"/>
	<path class="st0" d="M139.751,425.911c-17.289-5.507-34.575-3.84-45.381,3.18c4.098,11.734,16.794,22.896,34.09,28.381
		c17.282,5.493,34.572,3.84,45.373-3.187C169.736,442.558,157.036,431.374,139.751,425.911z"/>
	<path class="st0" d="M126.603,407.318c8.478-8.768,12.656-23.975,9.837-40.116c-2.817-16.132-11.885-28.888-22.804-34.05
		c-8.47,8.76-12.666,23.975-9.84,40.115C106.612,389.394,115.688,402.171,126.603,407.318z"/>
	<path class="st0" d="M68.398,359.405c-14.924-9.421-31.861-11.925-44.146-7.718c0.58,12.322,9.517,26.127,24.442,35.548
		c14.921,9.413,31.854,11.917,44.143,7.703C92.252,382.608,83.32,368.826,68.398,359.405z"/>
	<path class="st0" d="M79.266,273.785c-9.271,6.843-15.567,20.406-15.482,35.885c0.08,15.48,6.517,28.778,15.86,35.247
		c9.274-6.858,15.567-20.406,15.483-35.892C95.043,293.552,88.606,280.261,79.266,273.785z"/>
	<path class="st0" d="M55.137,248.649c11.41-2.32,23.182-11.94,30.099-25.972c6.935-14.032,7.156-28.734,1.7-38.485
		c-11.419,2.328-23.194,11.94-30.11,25.987C49.898,224.196,49.666,238.905,55.137,248.649z"/>
	<path class="st0" d="M38.428,213.19c8.602-6.888,14.088-20.069,13.39-34.872c-0.686-14.804-7.372-27.272-16.58-33.132
		c-8.603,6.881-14.098,20.054-13.398,34.865C22.519,194.846,29.216,207.33,38.428,213.19z"/>
	<path class="st0" d="M124.639,116.915c-10.519-1.05-23.634,4.148-33.984,14.488c-10.346,10.339-15.163,23.057-13.544,32.992
		c10.526,1.05,23.634-4.148,33.98-14.488C121.437,139.568,126.258,126.864,124.639,116.915z"/>
	<path class="st0" d="M93.321,106.473c4.479-12.527,3.267-24.937-2.254-32.603c-9.389,3.113-18.369,12.402-22.856,24.937
		c-4.483,12.512-3.267,24.93,2.262,32.596C79.854,128.274,88.834,119,93.321,106.473z"/>
	<path class="st0" d="M144.135,82.05c9.678-9.583,14.227-21.391,12.751-30.665c-9.781-1.006-22,3.775-31.689,13.365
		c-9.667,9.575-14.205,21.398-12.744,30.65C122.242,96.42,134.464,91.639,144.135,82.05z"/>
	<path class="st0" d="M34.932,262.476c-8.462-13.012-21.184-20.928-32.739-21.64c-4.27,10.486-2.342,25.098,6.109,38.096
		c8.452,13.005,21.185,20.928,32.739,21.633C45.3,290.072,43.384,275.466,34.932,262.476z"/>
	<path class="st0" d="M372.251,425.911c-17.285,5.463-29.982,16.647-34.086,28.374c10.802,7.027,28.087,8.68,45.38,3.187
		c17.293-5.486,29.989-16.647,34.086-28.381C406.822,422.07,389.544,420.404,372.251,425.911z"/>
	<path class="st0" d="M375.562,367.203c-2.82,16.14,1.359,31.347,9.84,40.116c10.912-5.148,19.996-17.924,22.808-34.05
		c2.82-16.14-1.373-31.355-9.847-40.115C387.444,338.315,378.382,351.07,375.562,367.203z"/>
	<path class="st0" d="M443.603,359.405c-14.92,9.421-23.857,23.204-24.444,35.533c12.292,4.214,29.233,1.71,44.147-7.703
		c14.928-9.422,23.872-23.226,24.452-35.548C475.472,347.48,458.532,349.984,443.603,359.405z"/>
	<path class="st0" d="M432.735,273.785c-9.34,6.476-15.787,19.767-15.854,35.239c-0.088,15.487,6.205,29.034,15.465,35.892
		c9.354-6.469,15.787-19.767,15.868-35.247C448.302,294.19,442.01,280.628,432.735,273.785z"/>
	<path class="st0" d="M425.077,184.192c-5.463,9.752-5.25,24.453,1.682,38.485c6.924,14.032,18.695,23.652,30.114,25.972
		c5.464-9.744,5.228-24.453-1.696-38.47C448.266,196.131,436.488,186.52,425.077,184.192z"/>
	<path class="st0" d="M473.578,213.19c9.208-5.86,15.905-18.343,16.588-33.139c0.698-14.811-4.795-27.984-13.401-34.865
		c-9.208,5.86-15.891,18.328-16.581,33.132C459.479,193.121,464.979,206.302,473.578,213.19z"/>
	<path class="st0" d="M434.887,164.395c1.623-9.936-3.202-22.654-13.54-32.992c-10.354-10.339-23.461-15.538-33.991-14.488
		c-1.608,9.95,3.202,22.653,13.555,32.992C411.257,160.246,424.357,165.445,434.887,164.395z"/>
	<path class="st0" d="M441.533,131.402c5.522-7.666,6.74-20.084,2.254-32.596c-4.479-12.535-13.46-21.824-22.852-24.937
		c-5.522,7.666-6.734,20.076-2.254,32.603C423.175,119,432.14,128.274,441.533,131.402z"/>
	<path class="st0" d="M399.545,95.399c1.468-9.252-3.07-21.074-12.741-30.65c-9.685-9.59-21.904-14.371-31.685-13.365
		c-1.476,9.274,3.077,21.082,12.748,30.665C377.538,91.639,389.756,96.42,399.545,95.399z"/>
	<path class="st0" d="M509.808,240.836c-11.55,0.713-24.276,8.628-32.735,21.64c-8.459,12.99-10.368,27.595-6.109,38.088
		c11.551-0.706,24.291-8.628,32.735-21.633C512.151,265.934,514.075,251.322,509.808,240.836z"/>
</g>
</svg>