<?xml version="1.0" encoding="utf-8"?>

<!DOCTYPE svg PUBLIC "-//W3C//DTD SVG 1.1//EN" "http://www.w3.org/Graphics/SVG/1.1/DTD/svg11.dtd">
<!-- Uploaded to: SVG Repo, www.svgrepo.com, Generator: SVG Repo Mixer Tools -->
<svg height="800px" width="800px" version="1.1" id="_x32_" xmlns="http://www.w3.org/2000/svg" xmlns:xlink="http://www.w3.org/1999/xlink" 
	 viewBox="0 0 512 512"  xml:space="preserve">
<style type="text/css">
	.st0{fill:#000000;}
</style>
<g>
	<path class="st0" d="M139.751,425.91c-17.29-5.507-34.575-3.84-45.38,3.18c4.097,11.734,16.794,22.895,34.09,28.381
		c17.282,5.493,34.572,3.84,45.373-3.187C169.736,442.557,157.036,431.373,139.751,425.91z"/>
	<path class="st0" d="M126.602,407.318c8.478-8.768,12.656-23.975,9.836-40.115c-2.816-16.133-11.884-28.888-22.804-34.05
		c-8.47,8.76-12.667,23.975-9.84,40.114C106.611,389.393,115.688,402.17,126.602,407.318z"/>
	<path class="st0" d="M68.398,359.404c-14.925-9.421-31.862-11.925-44.146-7.718c0.58,12.322,9.516,26.126,24.441,35.548
		c14.921,9.413,31.854,11.917,44.143,7.703C92.252,382.608,83.32,368.825,68.398,359.404z"/>
	<path class="st0" d="M79.266,273.785c-9.271,6.843-15.567,20.406-15.483,35.885c0.081,15.479,6.517,28.778,15.861,35.246
		c9.274-6.858,15.567-20.406,15.483-35.892C95.043,293.552,88.606,280.261,79.266,273.785z"/>
	<path class="st0" d="M55.136,248.649c11.411-2.32,23.182-11.94,30.1-25.972c6.935-14.032,7.156-28.733,1.7-38.485
		c-11.418,2.328-23.192,11.94-30.11,25.988C49.898,224.197,49.666,238.905,55.136,248.649z"/>
	<path class="st0" d="M38.428,213.19c8.602-6.888,14.087-20.069,13.39-34.872c-0.687-14.804-7.372-27.272-16.581-33.132
		c-8.602,6.881-14.099,20.054-13.397,34.865C22.519,194.847,29.216,207.33,38.428,213.19z"/>
	<path class="st0" d="M124.638,116.915c-10.518-1.05-23.634,4.148-33.983,14.488c-10.346,10.339-15.163,23.057-13.544,32.992
		c10.526,1.05,23.634-4.148,33.98-14.488C121.437,139.569,126.258,126.865,124.638,116.915z"/>
	<path class="st0" d="M93.321,106.473c4.479-12.527,3.267-24.937-2.254-32.602c-9.388,3.113-18.369,12.402-22.855,24.937
		c-4.483,12.512-3.268,24.929,2.262,32.595C79.853,128.275,88.834,119.001,93.321,106.473z"/>
	<path class="st0" d="M144.134,82.051c9.678-9.583,14.227-21.391,12.751-30.665c-9.781-1.006-22,3.775-31.689,13.365
		c-9.667,9.575-14.204,21.398-12.744,30.649C122.241,96.421,134.463,91.64,144.134,82.051z"/>
	<path class="st0" d="M34.932,262.477c-8.463-13.012-21.185-20.928-32.739-21.64c-4.27,10.486-2.342,25.098,6.11,38.096
		c8.452,13.004,21.185,20.928,32.739,21.633C45.3,290.071,43.384,275.466,34.932,262.477z"/>
	<path class="st0" d="M372.249,425.91c-17.286,5.464-29.982,16.647-34.086,28.374c10.801,7.027,28.094,8.68,45.379,3.187
		c17.3-5.486,29.989-16.647,34.086-28.381C406.82,422.07,389.549,420.403,372.249,425.91z"/>
	<path class="st0" d="M375.568,367.203c-2.82,16.14,1.351,31.347,9.84,40.115c10.911-5.148,19.988-17.924,22.808-34.05
		c2.82-16.139-1.381-31.354-9.855-40.114C387.45,338.315,378.388,351.07,375.568,367.203z"/>
	<path class="st0" d="M443.609,359.404c-14.922,9.421-23.865,23.204-24.452,35.533c12.292,4.214,29.239,1.71,44.146-7.703
		c14.936-9.422,23.88-23.226,24.452-35.548C475.478,347.479,458.53,349.983,443.609,359.404z"/>
	<path class="st0" d="M432.741,273.785c-9.341,6.476-15.788,19.768-15.861,35.239c-0.088,15.486,6.212,29.034,15.465,35.892
		c9.355-6.469,15.787-19.768,15.875-35.246C448.308,294.191,442.008,280.628,432.741,273.785z"/>
	<path class="st0" d="M425.075,184.192c-5.464,9.752-5.243,24.453,1.689,38.485c6.917,14.032,18.695,23.652,30.106,25.972
		c5.463-9.744,5.228-24.453-1.689-38.47C448.264,196.132,436.486,186.52,425.075,184.192z"/>
	<path class="st0" d="M473.583,213.19c9.208-5.86,15.905-18.343,16.58-33.139c0.706-14.811-4.787-27.984-13.393-34.865
		c-9.208,5.86-15.89,18.328-16.581,33.132C459.484,193.121,464.977,206.302,473.583,213.19z"/>
	<path class="st0" d="M434.885,164.395c1.63-9.935-3.201-22.654-13.54-32.992c-10.354-10.339-23.454-15.538-33.984-14.488
		c-1.615,9.95,3.202,22.654,13.556,32.992C411.256,160.247,424.355,165.446,434.885,164.395z"/>
	<path class="st0" d="M441.538,131.403c5.522-7.666,6.741-20.083,2.246-32.595c-4.479-12.535-13.452-21.824-22.851-24.937
		c-5.522,7.666-6.727,20.076-2.247,32.602C423.18,119.001,432.139,128.275,441.538,131.403z"/>
	<path class="st0" d="M399.55,95.4c1.468-9.252-3.07-21.074-12.748-30.649c-9.678-9.59-21.897-14.371-31.678-13.365
		c-1.482,9.274,3.07,21.082,12.748,30.665C377.536,91.64,389.755,96.421,399.55,95.4z"/>
	<path class="st0" d="M509.814,240.836c-11.558,0.713-24.276,8.628-32.735,21.64c-8.459,12.989-10.368,27.595-6.11,38.088
		c11.543-0.705,24.29-8.628,32.735-21.633C512.148,265.935,514.072,251.322,509.814,240.836z"/>
	<path class="st0" d="M308.839,315.236l-62.258,0.014v-0.513l46.808-55.22c11.246-12.814,18.042-26.163,18.038-43.162
		c-0.011-28.785-20.678-50.755-54.687-50.741c-34.274,0.008-54.152,21.471-55.973,46.055c-0.264,1.579,0.529,2.886,2.093,3.136
		l28.778,4.715c1.828,0.25,2.878-0.522,2.878-2.1c1.564-13.599,8.888-20.928,20.92-20.928c12.296-0.007,19.36,8.621,19.364,20.392
		c0,9.157-3.653,16.735-10.452,24.592l-62.504,74.312c-1.043,1.314-1.308,2.1-1.308,3.672l0.008,24.327
		c0,1.571,1.047,2.607,2.618,2.607l105.684-0.029c1.575,0,2.618-1.036,2.618-2.607l-0.008-25.898
		C311.456,316.286,310.413,315.236,308.839,315.236z"/>
</g>
</svg>