<?xml version="1.0" encoding="utf-8"?>

<!DOCTYPE svg PUBLIC "-//W3C//DTD SVG 1.1//EN" "http://www.w3.org/Graphics/SVG/1.1/DTD/svg11.dtd">
<!-- Uploaded to: SVG Repo, www.svgrepo.com, Generator: SVG Repo Mixer Tools -->
<svg height="800px" width="800px" version="1.1" id="_x32_" xmlns="http://www.w3.org/2000/svg" xmlns:xlink="http://www.w3.org/1999/xlink" 
	 viewBox="0 0 512 512"  xml:space="preserve">
<style type="text/css">
	.st0{fill:#000000;}
</style>
<g>
	<path class="st0" d="M139.75,425.912c-17.286-5.507-34.571-3.84-45.38,3.18c4.097,11.734,16.794,22.896,34.086,28.381
		c17.286,5.493,34.571,3.84,45.38-3.187C169.739,442.559,157.036,431.375,139.75,425.912z"/>
	<path class="st0" d="M126.606,407.32c8.474-8.768,12.652-23.976,9.832-40.116c-2.812-16.133-11.889-28.888-22.8-34.05
		c-8.474,8.76-12.674,23.975-9.84,40.115C106.61,389.395,115.686,402.172,126.606,407.32z"/>
	<path class="st0" d="M68.397,359.406c-14.929-9.421-31.862-11.925-44.147-7.718c0.58,12.322,9.516,26.127,24.446,35.548
		c14.92,9.414,31.854,11.918,44.139,7.703C92.255,382.609,83.318,368.826,68.397,359.406z"/>
	<path class="st0" d="M79.265,273.785c-9.274,6.844-15.567,20.406-15.487,35.886c0.088,15.479,6.521,28.778,15.862,35.247
		c9.282-6.858,15.567-20.406,15.487-35.893C95.045,293.552,88.606,280.261,79.265,273.785z"/>
	<path class="st0" d="M55.136,248.649c11.411-2.32,23.182-11.94,30.099-25.972c6.932-14.033,7.153-28.734,1.704-38.486
		c-11.426,2.328-23.197,11.94-30.114,25.988C49.9,224.196,49.665,238.905,55.136,248.649z"/>
	<path class="st0" d="M38.43,213.19c8.599-6.888,14.084-20.069,13.387-34.872c-0.683-14.804-7.373-27.273-16.581-33.132
		c-8.598,6.881-14.099,20.054-13.401,34.866C22.517,194.846,29.214,207.33,38.43,213.19z"/>
	<path class="st0" d="M124.638,116.914c-10.516-1.05-23.63,4.149-33.984,14.488c-10.346,10.339-15.163,23.058-13.54,32.993
		c10.523,1.05,23.63-4.148,33.976-14.488C121.436,139.568,126.253,126.864,124.638,116.914z"/>
	<path class="st0" d="M93.32,106.472c4.479-12.527,3.268-24.937-2.254-32.603c-9.384,3.113-18.372,12.402-22.851,24.937
		c-4.487,12.512-3.276,24.93,2.261,32.596C79.852,128.274,88.832,118.999,93.32,106.472z"/>
	<path class="st0" d="M144.134,82.049c9.678-9.583,14.224-21.391,12.755-30.665c-9.781-1.006-22,3.774-31.693,13.365
		c-9.664,9.575-14.202,21.398-12.747,30.65C122.244,96.42,134.463,91.639,144.134,82.049z"/>
	<path class="st0" d="M34.935,262.477c-8.467-13.012-21.192-20.928-32.743-21.641c-4.266,10.486-2.342,25.099,6.11,38.096
		c8.452,13.005,21.185,20.928,32.743,21.633C45.303,290.072,43.379,275.466,34.935,262.477z"/>
	<path class="st0" d="M372.248,425.912c-17.286,5.464-29.975,16.647-34.088,28.374c10.809,7.027,28.095,8.68,45.381,3.187
		c17.3-5.486,29.989-16.647,34.087-28.381C406.819,422.072,389.548,420.404,372.248,425.912z"/>
	<path class="st0" d="M375.567,367.204c-2.82,16.14,1.35,31.348,9.84,40.116c10.911-5.148,19.988-17.925,22.808-34.051
		c2.82-16.14-1.38-31.355-9.855-40.115C387.448,338.316,378.387,351.071,375.567,367.204z"/>
	<path class="st0" d="M443.608,359.406c-14.922,9.421-23.865,23.204-24.453,35.533c12.292,4.215,29.24,1.711,44.147-7.703
		c14.936-9.422,23.88-23.226,24.453-35.548C475.477,347.48,458.529,349.984,443.608,359.406z"/>
	<path class="st0" d="M432.74,273.785c-9.34,6.476-15.788,19.768-15.861,35.24c-0.088,15.487,6.212,29.034,15.464,35.893
		c9.356-6.469,15.788-19.768,15.876-35.247C448.308,294.191,442.007,280.628,432.74,273.785z"/>
	<path class="st0" d="M425.074,184.191c-5.463,9.752-5.243,24.453,1.69,38.486c6.917,14.032,18.695,23.652,30.106,25.972
		c5.463-9.744,5.228-24.453-1.689-38.47C448.263,196.131,436.485,186.519,425.074,184.191z"/>
	<path class="st0" d="M473.582,213.19c9.208-5.86,15.905-18.344,16.581-33.139c0.704-14.812-4.788-27.985-13.394-34.866
		c-9.208,5.86-15.89,18.328-16.58,33.132C459.484,193.12,464.976,206.302,473.582,213.19z"/>
	<path class="st0" d="M434.884,164.394c1.63-9.935-3.202-22.654-13.541-32.993c-10.354-10.339-23.454-15.538-33.984-14.488
		c-1.615,9.95,3.202,22.654,13.556,32.993C411.254,160.246,424.354,165.445,434.884,164.394z"/>
	<path class="st0" d="M441.537,131.402c5.522-7.666,6.741-20.083,2.247-32.596c-4.48-12.535-13.452-21.824-22.852-24.937
		c-5.522,7.666-6.727,20.076-2.247,32.603C423.179,118.999,432.138,128.274,441.537,131.402z"/>
	<path class="st0" d="M399.549,95.398c1.468-9.252-3.07-21.074-12.748-30.65c-9.678-9.59-21.897-14.371-31.678-13.365
		c-1.484,9.274,3.07,21.082,12.748,30.665C377.535,91.639,389.754,96.42,399.549,95.398z"/>
	<path class="st0" d="M509.814,240.836c-11.558,0.713-24.276,8.628-32.736,21.641c-8.459,12.99-10.368,27.595-6.11,38.088
		c11.543-0.706,24.291-8.628,32.736-21.633C512.148,265.935,514.072,251.322,509.814,240.836z"/>
	<path class="st0" d="M290.665,250.507v-0.536c12.821-8.371,19.878-21.456,19.871-36.635c-0.008-28.506-20.15-49.169-54.941-49.155
		c-31.4,0.008-51.534,17.285-55.72,40.835c-0.257,1.564,0.529,2.606,2.1,2.871l28.514,5.478c1.572,0.265,2.621-0.25,3.143-1.821
		c2.607-9.95,8.892-16.486,20.142-16.486c12.549-0.007,20.15,8.365,20.15,20.914c0,13.607-8.636,22.235-21.978,22.242h-7.064
		c-1.564,0-2.607,1.05-2.607,2.614l0.008,25.384c0,1.572,1.05,2.607,2.607,2.607h7.592c15.179-0.008,24.857,9.15,24.864,25.114
		c0,13.342-8.371,23.02-21.971,23.028c-12.557,0-20.15-7.328-23.293-16.742c-0.521-1.556-1.572-2.35-3.136-2.085l-28.777,5.5
		c-1.564,0.529-2.35,1.829-2.086,3.4c4.98,25.634,27.478,40.805,57.82,40.798c33.484-0.014,58.07-21.735,58.062-54.177
		C313.958,270.113,301.401,255.728,290.665,250.507z"/>
</g>
</svg>