<?xml version="1.0" encoding="utf-8"?>
<!-- Uploaded to: SVG Repo, www.svgrepo.com, Generator: SVG Repo Mixer Tools -->
<svg width="800px" height="800px" viewBox="0 0 1024 1024" fill="#000000" class="icon"  version="1.1" xmlns="http://www.w3.org/2000/svg"><path d="M383.2 941.6c-4 0-6.4-0.8-9.6-2.4-14.4-9.6-82.4-60-25.6-160 15.2-27.2 19.2-48.8 13.6-66.4-6.4-20-27.2-28-27.2-28-9.6-4-14.4-15.2-10.4-24.8 3.2-8 9.6-12.8 17.6-12.8 2.4 0 4.8 0.8 7.2 1.6 3.2 0 36.8 14.4 50.4 50.4 10.4 28.8 4.8 62.4-16.8 100-40 70.4 2.4 101.6 11.2 107.2 8.8 4.8 12 16.8 7.2 26.4-4.8 6.4-12 8.8-17.6 8.8z m129.6-42.4c-4 0-6.4-0.8-9.6-2.4-28.8-16.8-69.6-68.8-24-150.4 13.6-24.8 17.6-44.8 12-60-5.6-17.6-24-24.8-24-24.8-10.4-4-15.2-14.4-11.2-24.8 3.2-8 9.6-12.8 17.6-12.8 2.4 0 4.8 0.8 7.2 1.6 8 3.2 36 16 47.2 48 9.6 27.2 4.8 58.4-15.2 92.8-38.4 68.8 8 96.8 10.4 97.6 4 2.4 7.2 6.4 8.8 11.2 1.6 4.8 0.8 10.4-1.6 15.2-4.8 6.4-12 8.8-17.6 8.8z m-265.6 0c-4 0-6.4-0.8-9.6-2.4-28.8-16.8-69.6-68.8-24-150.4 13.6-24.8 17.6-44.8 12-60-5.6-17.6-24-24.8-24-24.8-10.4-4-15.2-14.4-11.2-24.8 3.2-8 9.6-12.8 17.6-12.8 2.4 0 4.8 0.8 7.2 1.6 8 3.2 36 16.8 47.2 48 9.6 27.2 4 58.4-15.2 93.6-38.4 68.8 8 96.8 10.4 97.6 4 2.4 7.2 6.4 8.8 11.2 1.6 4.8 0.8 10.4-1.6 15.2-4 5.6-12 8-17.6 8z m487.2-71.2c-6.4 0-11.2-2.4-15.2-6.4s-6.4-9.6-6.4-15.2c0-8.8 5.6-16.8 13.6-20.8h0.8v-43.2l-40.8 23.2v0.8c0 6.4-2.4 14.4-10.4 18.4-3.2 2.4-7.2 3.2-11.2 3.2-8 0-15.2-4-18.4-10.4-3.2-5.6-4-11.2-2.4-16.8 1.6-5.6 4.8-10.4 10.4-12.8 3.2-2.4 7.2-3.2 10.4-3.2 4 0 8 0.8 11.2 3.2l36.8-20.8-36-20.8c-4.8 1.6-8.8 2.4-12 2.4-4 0-7.2-0.8-10.4-2.4-9.6-6.4-13.6-20-8-29.6 4-6.4 11.2-10.4 19.2-10.4 4 0 8 0.8 11.2 3.2 6.4 4 10.4 10.4 10.4 18.4v0.8L728 712v-43.2h-0.8c-8-4-13.6-12-13.6-20.8 0-12 9.6-21.6 21.6-21.6 6.4 0 12 2.4 16 6.4s6.4 9.6 6.4 15.2c0 7.2-4 14.4-11.2 18.4H744v41.6l35.2-20v-0.8c0-6.4 2.4-14.4 10.4-18.4 3.2-2.4 7.2-3.2 11.2-3.2 8 0 15.2 4 18.4 10.4 3.2 5.6 4 11.2 2.4 16.8-1.6 5.6-4.8 10.4-10.4 12.8-3.2 2.4-7.2 3.2-10.4 3.2-4 0-8-0.8-11.2-3.2l-36.8 20.8 36 20.8c4.8-1.6 8.8-2.4 12-2.4 4 0 7.2 0.8 10.4 2.4 9.6 6.4 13.6 20 8 29.6-4 6.4-11.2 10.4-19.2 10.4-4 0-8-0.8-11.2-3.2-6.4-4-10.4-10.4-10.4-18.4v-0.8L744 745.6v41.6h0.8c7.2 3.2 11.2 10.4 11.2 18.4 0 12.8-9.6 22.4-21.6 22.4zM152 575.2c-60.8 0-109.6-48.8-109.6-109.6V204.8c0-60.8 48.8-109.6 109.6-109.6h721.6c60.8 0 109.6 48.8 109.6 109.6v260.8c0 60.8-48.8 109.6-109.6 109.6H152z m-11.2-432c-28.8 0-52 24-52 54.4v278.4c0 29.6 23.2 54.4 52 54.4h743.2c28.8 0 52-24 52-54.4V197.6c0-29.6-23.2-54.4-52-54.4H140.8z m21.6 312c-10.4 0-19.2-8.8-19.2-19.2 0-10.4 8.8-19.2 19.2-19.2h682.4c10.4 0 19.2 8.8 19.2 19.2 0 10.4-8.8 19.2-19.2 19.2H162.4z m0-80.8c-10.4 0-19.2-8.8-19.2-19.2S152 336 162.4 336h682.4c10.4 0 19.2 8.8 19.2 19.2 0 10.4-8.8 19.2-19.2 19.2H162.4z" fill="" /></svg>