<svg xmlns="http://www.w3.org/2000/svg" xmlns:xlink="http://www.w3.org/1999/xlink" version="1.1" width="256" height="256" viewBox="0 0 256 256" xml:space="preserve">

<defs>
</defs>
<g style="stroke: none; stroke-width: 0; stroke-dasharray: none; stroke-linecap: butt; stroke-linejoin: miter; stroke-miterlimit: 10; fill: none; fill-rule: nonzero; opacity: 1;" transform="translate(1.4065934065934016 1.4065934065934016) scale(2.81 2.81)" >
	<path d="M 64.876 43.037 c 2.515 -1.867 5.63 -2.971 9.003 -2.971 C 82.23 40.067 89 46.837 89 55.188 s -6.77 15.121 -15.121 15.121 c -6.478 0 -12.005 -4.074 -14.158 -9.8" style="stroke: none; stroke-width: 1; stroke-dasharray: none; stroke-linecap: butt; stroke-linejoin: miter; stroke-miterlimit: 10; fill: rgb(131,177,60); fill-rule: nonzero; opacity: 1;" transform=" matrix(1 0 0 1 0 0) " stroke-linecap="round" />
	<path d="M 25.396 42.894 c -1.768 -1.905 -4.294 -3.097 -7.098 -3.097 c -5.347 0 -9.681 4.335 -9.681 9.681 c 0 0.38 0.028 0.753 0.07 1.122 c -2.873 1.679 -4.809 4.788 -4.809 8.357 c 0 0.966 0.146 1.897 0.409 2.778 C 2.35 62.61 1 64.555 1 66.819 c 0 3.083 2.499 5.583 5.583 5.583 h 23.432 c 3.083 0 5.583 -2.499 5.583 -5.583 c 0 -1.132 -0.338 -2.184 -0.917 -3.063" style="stroke: none; stroke-width: 1; stroke-dasharray: none; stroke-linecap: butt; stroke-linejoin: miter; stroke-miterlimit: 10; fill: rgb(131,177,60); fill-rule: nonzero; opacity: 1;" transform=" matrix(1 0 0 1 0 0) " stroke-linecap="round" />
	<path d="M 65.149 46.869 c 0 10.978 -8.899 19.877 -19.877 19.877 s -19.877 -8.899 -19.877 -19.877 S 34.294 8.362 45.272 8.362 S 65.149 35.891 65.149 46.869 z" style="stroke: none; stroke-width: 1; stroke-dasharray: none; stroke-linecap: butt; stroke-linejoin: miter; stroke-miterlimit: 10; fill: rgb(153,201,79); fill-rule: nonzero; opacity: 1;" transform=" matrix(1 0 0 1 0 0) " stroke-linecap="round" />
	<path d="M 45.312 82.638 c -0.552 0 -1 -0.447 -1 -1 v -44.13 c 0 -0.552 0.448 -1 1 -1 s 1 0.448 1 1 v 44.13 C 46.313 82.19 45.864 82.638 45.312 82.638 z" style="stroke: none; stroke-width: 1; stroke-dasharray: none; stroke-linecap: butt; stroke-linejoin: miter; stroke-miterlimit: 10; fill: rgb(143,90,70); fill-rule: nonzero; opacity: 1;" transform=" matrix(1 0 0 1 0 0) " stroke-linecap="round" />
	<path d="M 45.313 47.301 c -0.27 0 -0.538 -0.107 -0.734 -0.321 c -0.375 -0.405 -0.351 -1.038 0.055 -1.413 l 5.981 -5.532 c 0.405 -0.375 1.036 -0.351 1.413 0.055 c 0.375 0.406 0.35 1.038 -0.056 1.413 l -5.98 5.533 C 45.799 47.213 45.555 47.301 45.313 47.301 z" style="stroke: none; stroke-width: 1; stroke-dasharray: none; stroke-linecap: butt; stroke-linejoin: miter; stroke-miterlimit: 10; fill: rgb(143,90,70); fill-rule: nonzero; opacity: 1;" transform=" matrix(1 0 0 1 0 0) " stroke-linecap="round" />
	<path d="M 45.312 55.802 c -0.243 0 -0.487 -0.088 -0.679 -0.266 l -8.354 -7.726 c -0.405 -0.375 -0.43 -1.008 -0.055 -1.413 c 0.375 -0.406 1.008 -0.431 1.414 -0.056 l 8.354 7.726 c 0.405 0.375 0.43 1.008 0.055 1.413 C 45.849 55.693 45.581 55.802 45.312 55.802 z" style="stroke: none; stroke-width: 1; stroke-dasharray: none; stroke-linecap: butt; stroke-linejoin: miter; stroke-miterlimit: 10; fill: rgb(143,90,70); fill-rule: nonzero; opacity: 1;" transform=" matrix(1 0 0 1 0 0) " stroke-linecap="round" />
	<path d="M 73.909 82.638 c -0.553 0 -1 -0.447 -1 -1 V 51.846 c 0 -0.553 0.447 -1 1 -1 s 1 0.447 1 1 v 29.792 C 74.909 82.19 74.462 82.638 73.909 82.638 z" style="stroke: none; stroke-width: 1; stroke-dasharray: none; stroke-linecap: butt; stroke-linejoin: miter; stroke-miterlimit: 10; fill: rgb(143,90,70); fill-rule: nonzero; opacity: 1;" transform=" matrix(1 0 0 1 0 0) " stroke-linecap="round" />
	<path d="M 73.909 59.534 c -0.269 0 -0.537 -0.108 -0.734 -0.321 c -0.375 -0.405 -0.35 -1.038 0.056 -1.413 l 4.551 -4.208 c 0.404 -0.375 1.037 -0.351 1.413 0.056 c 0.375 0.405 0.35 1.038 -0.056 1.413 l -4.551 4.208 C 74.396 59.446 74.152 59.534 73.909 59.534 z" style="stroke: none; stroke-width: 1; stroke-dasharray: none; stroke-linecap: butt; stroke-linejoin: miter; stroke-miterlimit: 10; fill: rgb(143,90,70); fill-rule: nonzero; opacity: 1;" transform=" matrix(1 0 0 1 0 0) " stroke-linecap="round" />
	<path d="M 73.909 66.002 c -0.243 0 -0.486 -0.088 -0.679 -0.266 l -6.354 -5.877 c -0.405 -0.375 -0.431 -1.008 -0.056 -1.413 c 0.375 -0.406 1.008 -0.431 1.413 -0.056 l 6.354 5.877 c 0.405 0.375 0.431 1.008 0.056 1.413 C 74.446 65.894 74.178 66.002 73.909 66.002 z" style="stroke: none; stroke-width: 1; stroke-dasharray: none; stroke-linecap: butt; stroke-linejoin: miter; stroke-miterlimit: 10; fill: rgb(143,90,70); fill-rule: nonzero; opacity: 1;" transform=" matrix(1 0 0 1 0 0) " stroke-linecap="round" />
	<path d="M 18.329 82.638 c -0.552 0 -1 -0.447 -1 -1 v -28.94 c 0 -0.553 0.448 -1 1 -1 s 1 0.447 1 1 v 28.94 C 19.329 82.19 18.881 82.638 18.329 82.638 z" style="stroke: none; stroke-width: 1; stroke-dasharray: none; stroke-linecap: butt; stroke-linejoin: miter; stroke-miterlimit: 10; fill: rgb(143,90,70); fill-rule: nonzero; opacity: 1;" transform=" matrix(1 0 0 1 0 0) " stroke-linecap="round" />
	<path d="M 18.329 60.408 c -0.269 0 -0.537 -0.107 -0.734 -0.321 c -0.375 -0.405 -0.351 -1.038 0.055 -1.413 l 4.565 -4.223 c 0.405 -0.374 1.038 -0.353 1.413 0.056 c 0.375 0.405 0.351 1.038 -0.055 1.413 l -4.565 4.223 C 18.816 60.32 18.572 60.408 18.329 60.408 z" style="stroke: none; stroke-width: 1; stroke-dasharray: none; stroke-linecap: butt; stroke-linejoin: miter; stroke-miterlimit: 10; fill: rgb(143,90,70); fill-rule: nonzero; opacity: 1;" transform=" matrix(1 0 0 1 0 0) " stroke-linecap="round" />
	<path d="M 18.329 66.896 c -0.243 0 -0.487 -0.088 -0.679 -0.266 l -6.375 -5.896 c -0.405 -0.375 -0.43 -1.008 -0.055 -1.413 c 0.375 -0.406 1.008 -0.431 1.413 -0.056 l 6.375 5.896 c 0.405 0.375 0.43 1.008 0.055 1.413 C 18.866 66.788 18.598 66.896 18.329 66.896 z" style="stroke: none; stroke-width: 1; stroke-dasharray: none; stroke-linecap: butt; stroke-linejoin: miter; stroke-miterlimit: 10; fill: rgb(143,90,70); fill-rule: nonzero; opacity: 1;" transform=" matrix(1 0 0 1 0 0) " stroke-linecap="round" />
	<path d="M 89 82.638 H 1 c -0.552 0 -1 -0.447 -1 -1 s 0.448 -1 1 -1 h 88 c 0.553 0 1 0.447 1 1 S 89.553 82.638 89 82.638 z" style="stroke: none; stroke-width: 1; stroke-dasharray: none; stroke-linecap: butt; stroke-linejoin: miter; stroke-miterlimit: 10; fill: rgb(87,118,40); fill-rule: nonzero; opacity: 1;" transform=" matrix(1 0 0 1 0 0) " stroke-linecap="round" />
</g>
</svg>