<?xml version="1.0" standalone="no"?>
<!DOCTYPE svg PUBLIC "-//W3C//DTD SVG 20010904//EN"
 "http://www.w3.org/TR/2001/REC-SVG-20010904/DTD/svg10.dtd">
<svg version="1.0" xmlns="http://www.w3.org/2000/svg"
 width="225.000000pt" height="225.000000pt" viewBox="0 0 225.000000 225.000000"
 preserveAspectRatio="xMidYMid meet">

<g transform="translate(0.000000,225.000000) scale(0.100000,-0.100000)"
fill="#000000" stroke="none">
<path d="M995 2236 c-157 -31 -252 -83 -370 -201 -64 -64 -101 -110 -127 -160
-116 -225 -115 -475 5 -696 l30 -56 -31 -79 c-17 -43 -92 -230 -166 -414 -75
-184 -136 -339 -136 -345 0 -7 61 -6 197 4 l196 14 36 -39 c89 -98 192 -213
210 -235 11 -13 22 -21 25 -18 6 6 164 390 228 553 20 53 33 74 38 65 6 -10
163 -396 247 -607 3 -6 8 -12 12 -12 3 0 64 65 134 145 148 167 104 151 365
132 115 -9 162 -9 162 -2 0 6 -74 194 -165 418 -91 224 -165 410 -165 414 0 4
18 42 40 85 76 146 100 326 65 492 -18 86 -80 213 -139 288 -86 109 -236 206
-372 242 -84 23 -235 28 -319 12z m268 -161 c186 -48 344 -198 399 -378 43
-141 25 -310 -49 -443 -42 -76 -147 -176 -229 -217 -72 -36 -193 -67 -261 -67
-21 0 -69 7 -108 15 -258 54 -445 283 -445 545 0 257 171 478 420 544 72 19
202 20 273 1z m-542 -1132 c66 -47 169 -93 239 -106 33 -6 60 -16 60 -21 0 -4
-41 -110 -91 -235 -51 -124 -97 -238 -103 -253 -6 -16 -13 -28 -16 -27 -3 0
-36 36 -75 81 l-70 80 -112 -7 c-75 -4 -113 -2 -113 4 0 6 43 118 96 248 53
131 100 248 105 261 10 25 9 26 80 -25z m990 -229 l107 -265 -116 6 -117 7
-70 -81 c-38 -44 -72 -80 -75 -81 -10 0 -211 510 -205 520 3 6 15 10 25 10 50
0 185 54 257 103 43 29 80 52 82 50 3 -2 53 -123 112 -269z"/>
<path d="M1065 1818 c-88 -60 -166 -113 -174 -117 -10 -6 -3 -23 30 -73 l44
-66 57 39 c31 22 59 39 62 39 4 0 6 -103 6 -230 l0 -230 75 0 75 0 0 375 c0
206 -3 374 -7 374 -5 -1 -80 -50 -168 -111z"/>
</g>
</svg>
