<?xml version="1.0" encoding="utf-8"?>

<!DOCTYPE svg PUBLIC "-//W3C//DTD SVG 1.1//EN" "http://www.w3.org/Graphics/SVG/1.1/DTD/svg11.dtd">
<!-- Uploaded to: SVG Repo, www.svgrepo.com, Generator: SVG Repo Mixer Tools -->
<svg height="800px" width="800px" version="1.1" id="_x32_" xmlns="http://www.w3.org/2000/svg" xmlns:xlink="http://www.w3.org/1999/xlink" 
	 viewBox="0 0 512 512"  xml:space="preserve">
<style type="text/css">
	.st0{fill:#000000;}
</style>
<g>
	<path class="st0" d="M511.622,226.121c-3.08-28.33-16.904-54.468-42.368-71.742c-83.734-56.817-149.521-8.97-203.355-20.93
		c-53.828-11.968-105.51-44.332-137.562-53.827C59.462,59.203-7.212,114.96,0.632,185.61v37.251
		c-2.127,18.778,1.002,39.272,11.072,60.119c48.85,101.206,241.346,162.992,361.847,152.51
		c85.731-7.458,134.275-69.474,138.448-128.928C512,306.562,511.622,228.15,511.622,226.121z M482.2,262.798
		c-9.849,37.792-44.168,80.252-110.973,86.067c-8.025,0.706-16.568,1.051-25.414,1.051c-57.392,0-126.448-14.777-184.694-39.534
		C98.298,283.686,53.843,248.554,35.937,211.46c-12.691-26.285-12.042-52.916,1.815-74.995
		c13.233-21.094,36.824-34.195,61.556-34.195c7.122,0,14.317,1.06,21.382,3.146c10.654,3.171,25.833,10.219,41.908,17.677
		c27.558,12.798,61.852,28.717,97.46,36.635c8.017,1.774,16.428,2.645,25.694,2.645c15.171,0,30.598-2.398,45.514-4.706
		c15.369-2.383,31.263-4.847,47.338-4.847c27.574,0,51.568,7.574,75.536,23.838C485.773,198.12,489.379,235.223,482.2,262.798z"/>
	<path class="st0" d="M235.457,181.864c-31.797-9.159-61.121-22.745-85.451-34.039c-14.391-6.686-29.258-13.594-37.81-16.124
		c-4.312-1.273-8.641-1.922-12.888-1.922c-14.539,0-28.412,7.738-36.232,20.182c-10.49,16.724-5.906,34.294-0.198,46.106
		c14.531,30.12,54.607,60.883,109.93,84.4c24.305,8.493,63.182,8.493,63.182-18.425
		C235.991,235.313,218.051,212.691,235.457,181.864z"/>
	<path class="st0" d="M437.35,198.998c-19.032-12.912-37.152-18.67-58.746-18.67c-13.751,0-27.814,2.168-42.754,4.501
		c-15.286,2.366-32.619,5.052-50.098,5.052c-9.06,0-17.529-0.714-25.694-2.11c-6.128,15.097-5.774,45.522,2.85,74.271
		c8.97,29.899,8.97,40.372,34.393,50.846c16.444,4.476,33.34,4.732,48.512,4.732c7.96,0,15.632-0.313,22.819-0.937
		c64.563-5.618,81.098-50.27,84.63-63.824C455.496,244.267,460.95,215.016,437.35,198.998z M351.128,265.032
		c-31.395,2.99-37.383-34.384-7.475-40.38C370.686,219.246,396.173,260.744,351.128,265.032z"/>
</g>
</svg>