<?xml version="1.0" standalone="no"?>
<!DOCTYPE svg PUBLIC "-//W3C//DTD SVG 20010904//EN"
 "http://www.w3.org/TR/2001/REC-SVG-20010904/DTD/svg10.dtd">
<svg version="1.0" xmlns="http://www.w3.org/2000/svg"
 width="300.000000pt" height="300.000000pt" viewBox="0 0 300.000000 300.000000"
 preserveAspectRatio="xMidYMid meet">
<metadata>
Created by potrace 1.10, written by Peter Selinger 2001-2011
</metadata>
<g transform="translate(0.000000,300.000000) scale(0.050000,-0.050000)"
fill="#000000" stroke="none">
<path d="M1813 5950 c-7 -17 -29 -30 -50 -30 -21 0 -49 -14 -63 -30 -22 -27
-28 -26 -52 5 -25 33 -27 33 -27 0 -1 -19 -10 -33 -20 -30 -21 5 -1398 -1359
-1464 -1450 -22 -30 -31 -55 -21 -55 11 0 33 20 50 45 l31 45 -3 -44 c-1 -24
-11 -38 -22 -31 -11 7 -13 -3 -6 -23 8 -20 6 -29 -6 -22 -11 7 -21 3 -22 -9
-5 -40 -9 -51 -25 -76 -9 -14 -26 -20 -37 -12 -13 7 -16 4 -9 -8 7 -12 2 -26
-12 -32 -17 -7 -16 -10 5 -11 39 -2 846 805 826 826 -9 8 -6 12 7 9 13 -4 202
170 420 386 526 520 554 550 531 565 -11 6 -25 -2 -31 -18z"/>
<path d="M3920 5944 c0 -20 -15 -25 -50 -16 -27 7 -50 4 -50 -6 0 -11 -22 -15
-49 -11 -27 5 -54 0 -61 -12 -8 -13 5 -17 35 -12 27 5 61 1 77 -10 24 -16 23
-18 -2 -15 -77 8 -140 -5 -169 -33 -32 -33 -42 -71 -16 -67 52 9 69 -3 46 -30
-17 -21 -17 -32 -1 -42 13 -8 87 51 174 137 115 115 141 150 109 148 -24 -2
-43 -16 -43 -31z"/>
<path d="M4962 5955 c-1 -19 -9 -34 -17 -33 -45 8 -63 -5 -51 -36 12 -31 10
-31 -18 -5 -18 16 -28 36 -23 44 49 81 -93 -40 -351 -297 -171 -172 -301 -306
-287 -299 14 7 25 3 25 -10 0 -18 8 -18 30 1 25 21 30 18 30 -19 0 -66 13 -56
344 272 316 313 403 404 363 380 -13 -7 -28 -2 -34 12 -6 15 -10 11 -11 -10z"/>
<path d="M2820 5911 c0 -18 -15 -26 -41 -21 -22 4 -36 1 -30 -8 19 -31 100
-13 107 23 4 19 -3 35 -15 35 -11 0 -21 -13 -21 -29z"/>
<path d="M5407 5495 c-346 -341 -523 -532 -451 -487 15 9 25 1 26 -22 0 -21 5
-26 11 -11 14 35 47 31 47 -5 0 -16 -10 -30 -21 -30 -12 0 -15 -10 -8 -22 15
-24 889 837 889 876 0 28 -55 86 -83 86 -11 0 -195 -173 -410 -385z"/>
<path d="M509 5779 c-40 -90 -112 -159 -206 -198 -98 -40 -85 -101 32 -155 75
-34 108 -66 156 -150 71 -124 119 -144 150 -63 37 98 114 180 209 225 117 55
112 93 -20 161 -79 40 -112 74 -156 156 -70 130 -114 136 -165 24z"/>
<path d="M2485 5718 c-34 -36 -31 -188 5 -258 34 -65 29 -72 -73 -88 -246 -39
-793 -318 -949 -483 -42 -45 -44 -45 -102 -10 -293 178 -499 -27 -304 -302 47
-66 47 -69 -3 -123 -152 -162 -376 -654 -430 -944 -65 -349 -64 -579 3 -1000
49 -313 255 -732 506 -1030 143 -170 162 -184 222 -169 28 7 60 15 72 17 58 9
121 117 73 124 -14 1 -35 4 -46 6 -12 1 -15 12 -8 24 10 16 19 14 31 -5 17
-26 21 -19 27 43 1 18 19 28 45 26 32 -4 40 4 32 32 -5 21 0 44 12 51 14 8 22
-7 22 -40 0 -35 -13 -56 -39 -63 -45 -12 -68 -59 -38 -78 26 -16 219 172 203
198 -7 11 -2 14 10 7 32 -20 49 21 26 62 -20 33 -21 33 -21 0 -1 -19 -10 -35
-22 -35 -14 0 -14 12 0 37 11 21 13 45 5 55 -8 9 1 5 19 -9 20 -15 38 -17 45
-6 7 11 4 23 -6 26 -11 4 -7 23 7 43 17 23 32 29 40 15 7 -11 3 -21 -9 -21
-12 0 -17 -9 -9 -21 7 -11 1 -34 -12 -50 -14 -17 -19 -36 -12 -42 22 -22 418
388 402 415 -11 17 -5 21 19 12 19 -8 29 -5 23 5 -6 9 -4 21 4 26 8 5 4 6 -10
2 -14 -3 -26 3 -27 14 -2 10 -4 30 -6 44 -2 14 27 54 63 90 36 36 58 65 49 65
-9 0 -139 -121 -289 -270 -149 -148 -266 -270 -259 -270 7 0 -7 -14 -31 -31
-33 -23 -42 -47 -38 -100 5 -54 -1 -68 -22 -60 -16 6 -33 11 -40 11 -6 0 5 18
25 40 20 22 27 40 16 40 -29 0 -297 -262 -291 -284 4 -11 -3 -14 -13 -7 -11 6
-25 2 -33 -10 -8 -14 -22 -9 -39 15 -15 19 -22 42 -17 51 5 8 -1 15 -13 15
-12 0 -18 8 -12 17 6 9 -14 45 -44 80 -30 34 -72 83 -94 108 -22 26 -62 62
-89 81 l-50 34 60 2 c59 2 59 2 9 20 -46 16 -45 17 14 11 37 -3 62 3 60 16 -2
11 12 20 31 18 19 -1 30 4 25 12 -5 9 17 39 49 67 38 34 61 44 67 28 5 -13 8
1 6 31 -2 57 -32 79 -32 24 0 -16 -16 -36 -35 -44 -19 -7 -52 -32 -75 -56 -38
-40 -150 -78 -150 -51 0 7 14 33 31 58 19 27 23 44 9 44 -12 0 -16 10 -9 21 7
12 25 17 39 12 31 -12 157 113 135 135 -8 8 -6 12 5 9 68 -22 150 91 150 207
l0 116 -145 -152 c-160 -168 -193 -217 -97 -147 51 38 67 42 87 20 20 -21 19
-24 -5 -16 -56 18 -114 -26 -73 -55 31 -23 31 -27 2 -37 -17 -7 -27 -20 -22
-29 6 -8 -8 -15 -30 -15 -31 0 -37 9 -28 45 15 59 1 58 -73 -4 -62 -52 -96
-51 -96 5 0 32 -30 136 -62 215 -8 22 -22 81 -29 130 -8 50 -26 108 -42 129
-52 76 -27 113 303 445 182 183 330 340 330 349 0 9 12 17 27 17 43 0 138 119
124 157 -8 25 -4 24 19 -6 35 -45 40 -27 9 31 -12 21 -28 35 -37 29 -9 -6 -33
8 -52 29 -20 22 -46 40 -58 40 -12 0 -9 -9 7 -19 26 -16 25 -23 -2 -55 -18
-20 -28 -49 -23 -66 7 -22 4 -24 -9 -5 -13 18 -62 -23 -176 -147 -142 -154
-200 -212 -278 -278 -13 -11 -71 -65 -128 -120 l-105 -100 12 100 c6 55 16
141 21 190 11 111 22 187 29 200 2 6 3 27 0 49 -2 21 17 55 43 75 30 23 35 32
12 24 -40 -14 -35 47 18 217 l30 95 101 0 c105 0 361 -76 345 -102 -5 -8 1
-22 14 -30 15 -9 18 -5 8 11 -12 19 -4 22 31 12 33 -9 39 -8 21 5 -23 16 -23
21 0 31 15 7 7 8 -18 1 -25 -6 -45 -2 -45 8 0 29 -261 104 -371 105 -74 1 -89
6 -59 19 22 9 32 18 22 19 -15 1 127 157 257 283 36 36 36 38 3 38 -29 0 -34
10 -23 52 9 36 2 65 -21 90 -40 44 -23 75 21 39 16 -14 49 -19 75 -11 36 10
39 8 16 -8 -23 -17 -13 -21 45 -22 57 0 76 8 77 35 7 95 58 197 81 161 12 -19
16 -19 17 -2 0 13 18 20 40 16 39 -8 181 98 270 201 40 46 74 56 170 51 l50
-3 -50 -28 c-44 -25 -46 -30 -15 -42 39 -15 50 -129 13 -129 -13 0 -18 18 -12
40 6 22 2 40 -8 40 -10 0 -18 -23 -18 -52 0 -56 -68 -126 -124 -127 -18 -1
-38 -9 -44 -18 -6 -10 11 -15 39 -12 27 3 49 -3 49 -13 0 -10 -21 -18 -48 -18
-26 0 -58 -13 -72 -30 -20 -24 -20 -30 3 -30 21 -1 21 -5 -3 -20 -24 -16 -21
-19 16 -20 26 0 41 9 34 20 -7 11 7 20 32 20 55 0 171 86 188 140 7 22 19 37
26 32 8 -4 16 25 19 65 3 40 15 98 28 128 29 72 -33 135 -116 119 -39 -7 -49
-3 -37 15 11 19 -1 22 -52 12 -151 -30 -256 -98 -257 -167 -1 -15 -11 -20 -24
-12 -16 10 -20 3 -10 -20 10 -28 3 -33 -32 -28 -48 6 -79 96 -33 96 13 0 52
21 86 46 79 59 301 154 359 154 26 0 81 37 132 89 l88 89 79 -90 c145 -165
386 -228 544 -142 l60 32 -56 1 c-37 1 -52 9 -42 24 10 17 -3 20 -46 11 -34
-7 -70 -2 -82 10 -13 13 -55 21 -94 20 -58 -2 -76 7 -94 46 -15 34 -30 44 -45
31 -15 -13 -22 -8 -22 16 0 19 16 36 35 38 85 9 96 13 96 28 0 30 44 18 78
-20 39 -46 153 -106 169 -90 6 7 -26 31 -71 54 -46 24 -97 66 -114 93 l-30 50
49 -44 c54 -48 144 -87 195 -84 19 0 -4 14 -49 31 -46 16 -107 53 -136 81
l-52 53 51 33 c28 18 44 39 37 47 -8 7 -3 13 11 13 13 0 19 9 12 20 -7 11 -2
20 11 20 17 0 16 10 -4 33 -24 31 -21 32 33 19 33 -8 67 -28 76 -43 8 -15 27
-23 42 -17 15 6 32 -4 39 -22 7 -18 22 -27 33 -20 11 7 20 1 20 -12 0 -14 6
-19 13 -12 7 8 25 4 40 -9 30 -24 147 12 147 47 0 10 9 13 20 6 11 -7 20 2 20
19 0 17 17 31 38 31 21 0 42 8 45 19 7 17 117 47 117 31 0 -4 -11 -20 -25 -35
-111 -122 -142 -159 -120 -147 14 8 25 5 25 -7 0 -11 -17 -21 -39 -21 -21 0
-44 -9 -51 -20 -7 -11 8 -20 34 -21 l46 0 -48 -27 -49 -27 43 -23 c57 -30 204
39 204 96 0 24 18 41 49 47 52 10 51 -5 -5 -70 -23 -26 -24 -35 -5 -35 41 0
338 -154 445 -231 56 -40 141 -79 201 -92 83 -17 123 -40 190 -109 101 -105
98 -105 168 -23 30 36 56 54 56 40 1 -14 15 -25 31 -25 17 0 30 -13 30 -28 0
-23 14 -25 72 -9 88 24 108 9 57 -42 -64 -64 -115 -137 -81 -116 4 3 24 -10
45 -28 24 -21 51 -27 77 -17 61 22 93 3 69 -42 -24 -45 -125 -101 -211 -117
l-63 -11 103 -180 c112 -197 129 -238 212 -491 302 -933 -12 -1965 -798 -2623
-117 -97 -116 -127 3 -87 l74 26 -31 -52 c-82 -139 -84 -140 -147 -64 l-57 69
-78 -52 c-308 -203 -813 -360 -656 -203 17 17 26 38 20 47 -12 20 99 135 170
177 59 35 155 48 336 47 162 -1 174 35 27 76 -280 77 -565 -81 -624 -348 -27
-119 -98 -157 -116 -63 -4 21 -20 51 -36 67 -32 32 -25 77 12 69 13 -4 18 3
11 15 -16 26 -65 0 -128 -68 -56 -60 -86 -65 -123 -21 -14 17 -35 27 -47 22
-12 -4 -40 2 -62 13 -22 12 -70 22 -106 24 -37 1 -73 12 -80 24 -11 17 -140
49 -227 55 -64 5 39 129 398 478 91 88 165 175 165 192 -1 27 -3 27 -19 1 -16
-24 -23 -20 -40 20 l-21 50 4 -50 c6 -92 -21 -143 -65 -119 -27 14 -39 14 -39
0 0 -12 9 -21 20 -21 11 0 1 -21 -22 -48 -26 -30 -55 -44 -80 -37 -49 13 -49
57 1 70 28 8 35 2 28 -22 -8 -27 -6 -27 13 2 12 19 18 42 13 50 -5 8 3 26 18
40 17 16 31 17 39 4 22 -35 47 0 46 63 -2 57 -19 43 -325 -261 -364 -361 -336
-345 -435 -251 -40 39 -83 70 -95 70 -11 0 -21 7 -21 17 0 23 -179 61 -192 40
-20 -32 -81 -17 -128 33 -65 69 -506 77 -615 10 -83 -50 -145 -151 -145 -235
0 -115 -46 -134 -346 -145 l-264 -10 0 -70 0 -70 290 -5 c384 -7 438 24 493
285 25 115 58 124 417 118 l310 -6 166 -110 c1462 -972 3457 -47 3725 1728 44
285 -9 832 -100 1050 -17 41 -31 78 -31 82 0 4 150 10 333 13 358 5 410 22
355 110 -20 31 -65 36 -395 40 -345 5 -373 9 -373 42 0 45 -178 342 -277 461
-99 120 -122 166 -104 202 102 194 -39 326 -251 234 -34 -14 -67 -2 -160 61
-257 171 -316 204 -484 271 -96 38 -239 85 -318 106 -120 30 -140 41 -126 69
41 75 46 231 9 268 -82 81 -359 3 -439 -124 -48 -77 -94 -82 -130 -16 -65 123
-381 226 -455 149z m-1046 -1011 c5 -5 -39 -55 -98 -113 -58 -57 -100 -93 -92
-79 7 14 -2 41 -21 60 -33 32 -33 35 -2 41 19 4 34 16 34 27 0 11 -18 14 -40
7 -31 -10 -40 -4 -40 29 0 22 9 41 20 41 11 0 20 -10 20 -21 0 -12 20 -7 45
10 40 29 143 27 174 -2z m3301 -267 c0 -11 -13 -20 -30 -20 -16 0 -30 -7 -30
-16 0 -8 17 -15 39 -15 21 0 33 8 27 18 -6 10 1 14 16 8 15 -5 25 -22 22 -36
-5 -21 0 -21 25 0 27 23 30 22 18 -10 -11 -28 -7 -33 20 -23 28 11 31 7 16
-19 -19 -36 -8 -107 17 -107 9 0 48 -28 87 -63 l71 -63 -40 -57 c-47 -65 -43
-128 8 -124 18 1 29 -6 23 -15 -20 -33 25 -19 79 24 53 41 55 42 82 5 33 -42
40 -116 10 -97 -12 7 -20 -17 -20 -60 0 -52 -7 -68 -25 -57 -13 8 -4 -10 20
-42 46 -58 63 -144 24 -120 -12 7 -17 26 -11 41 6 15 2 28 -9 28 -31 0 -22
-40 24 -104 62 -87 84 -226 47 -284 -17 -25 -23 -53 -15 -62 8 -9 5 -11 -7 -4
-41 24 -95 -56 -59 -86 19 -15 31 -17 31 -4 0 11 -11 25 -25 31 -15 6 -11 10
10 11 39 2 46 -39 13 -72 -30 -30 -78 -11 -79 31 0 30 -2 30 -19 1 -51 -87
-114 -100 -107 -21 11 104 10 242 -1 259 -4 8 -14 68 -21 134 -8 73 -28 136
-50 160 -42 47 -36 74 45 177 62 79 51 123 -24 99 -27 -8 -28 -7 -3 11 26 18
25 23 -5 34 -22 9 -51 0 -75 -22 -30 -28 -40 -29 -42 -7 -7 85 -12 117 -23
144 -6 17 -5 36 2 43 7 8 15 39 16 71 l3 57 -48 -54 c-29 -33 -43 -40 -35 -18
7 19 3 35 -8 35 -23 0 -21 37 5 78 11 18 10 24 -4 15 -28 -17 -72 39 -54 69
10 15 7 19 -8 10 -14 -9 -23 -1 -23 18 0 18 -9 27 -20 20 -11 -7 -20 -3 -20 9
0 11 17 21 39 21 21 0 44 9 51 20 7 11 21 20 31 20 11 0 19 -9 19 -20z m-3300
-949 c0 -16 -9 -34 -20 -41 -12 -7 -14 2 -6 24 12 31 9 32 -19 10 -19 -16 -27
-41 -20 -60 11 -29 9 -29 -20 -3 -31 27 -30 32 8 64 50 43 77 45 77 6z m-117
-89 c-14 -9 -24 -21 -21 -26 9 -17 -54 -93 -83 -100 -16 -3 -44 -31 -64 -61
-19 -30 -46 -53 -60 -50 -15 3 -22 -11 -18 -34 6 -34 2 -35 -26 -12 -32 27 24
111 74 111 9 0 25 14 35 30 10 17 29 30 43 30 13 0 28 13 33 28 6 19 1 22 -18
11 -24 -14 -24 -11 -2 16 15 18 40 28 56 22 20 -8 25 -2 16 21 -9 22 -1 32 25
32 28 -1 30 -5 10 -18z m-287 -321 c7 -19 -1 -23 -25 -14 -26 10 -32 6 -24
-16 6 -16 3 -35 -8 -42 -22 -13 -25 31 -7 80 15 37 51 32 64 -8z m4256 -106
c-7 -36 -17 -128 -23 -205 -12 -169 -21 -197 -54 -177 -17 10 -16 4 2 -19 24
-29 24 -34 0 -36 -16 0 -18 -5 -5 -10 28 -12 11 -108 -22 -121 -16 -6 -22 -34
-16 -78 9 -66 -19 -97 -41 -44 -6 16 -10 12 -11 -8 -1 -19 7 -37 18 -40 12 -4
8 -29 -9 -62 -16 -30 -24 -55 -19 -55 28 0 -70 -138 -182 -257 -71 -76 -123
-144 -115 -153 8 -9 4 -10 -9 -3 -13 8 -29 5 -36 -7 -18 -29 -81 -25 -108 8
-18 21 -16 30 9 40 17 6 26 20 20 30 -6 11 -2 25 9 32 11 7 16 20 10 29 -5 9
4 22 21 29 18 6 26 21 19 32 -7 11 -2 20 10 20 12 0 17 9 10 20 -7 11 -2 20
11 20 13 0 18 14 12 30 -7 18 0 30 16 30 16 0 35 10 43 23 9 14 5 18 -9 9 -35
-22 -28 17 19 107 23 44 36 88 30 99 -7 10 -3 22 8 25 12 4 23 36 25 72 3 36
14 65 25 65 11 0 7 9 -10 20 -17 11 -20 20 -7 20 16 0 22 38 20 113 -3 82 6
125 32 158 19 25 35 55 35 67 0 12 10 22 21 22 12 0 15 10 7 23 -8 13 -5 18 7
10 11 -7 32 2 46 19 18 21 20 35 5 45 -43 27 8 107 54 83 31 -17 51 -15 85 9
59 42 61 41 47 -34z m-3117 -870 c5 -14 -6 -25 -25 -25 -19 0 -27 9 -18 23 9
14 5 18 -8 9 -12 -7 -17 -28 -10 -46 9 -22 5 -28 -11 -18 -12 8 -23 4 -23 -8
0 -12 -11 -16 -23 -8 -16 10 -20 4 -11 -18 14 -38 -17 -63 -80 -65 -33 -1 -39
6 -24 24 12 13 34 19 51 13 18 -7 29 -1 26 16 -8 59 2 77 36 64 19 -7 28 -5
20 4 -21 23 25 73 62 66 16 -3 33 -17 38 -31z m-195 -182 c0 -17 -91 -123
-106 -123 -30 0 2 107 33 112 20 3 42 10 48 16 16 17 25 15 25 -5z m2790 -281
c78 -20 77 -20 -34 -13 -63 4 -130 18 -150 30 -42 27 46 18 184 -17z m-25 -59
c13 -13 -4 -18 -48 -16 -44 2 -65 -5 -62 -22 3 -14 -6 -25 -20 -26 -14 0 -96
-68 -183 -150 -174 -166 -237 -190 -74 -29 56 55 102 108 102 117 0 9 22 43
50 75 27 32 50 66 50 76 0 22 159 1 185 -25z m-2345 -244 c0 -12 -9 -16 -20
-9 -11 7 -20 3 -20 -9 0 -27 34 -27 50 -1 7 11 22 20 34 20 13 0 11 -12 -5
-31 -14 -18 -43 -27 -63 -22 -40 10 -50 -18 -11 -35 14 -6 8 -9 -13 -6 -21 2
-42 -9 -48 -24 -6 -18 -1 -22 16 -12 17 11 21 8 12 -7 -8 -13 -27 -23 -43 -23
-16 0 -29 -13 -29 -28 0 -46 -135 -153 -174 -138 -21 9 -25 16 -10 21 13 5 20
16 14 25 -6 10 -1 23 10 30 12 7 19 2 15 -11 -3 -13 8 -29 23 -34 21 -8 25 3
18 42 -7 33 1 62 20 78 27 22 29 17 16 -35 -12 -50 -10 -55 12 -34 14 14 26
50 26 79 0 37 15 62 50 79 28 14 42 26 32 26 -10 0 -2 18 18 40 40 44 70 52
70 19z"/>
<path d="M2910 4995 c4 -113 9 -211 9 -219 2 -34 81 -57 121 -36 36 19 40 42
40 241 l0 219 -90 0 -90 0 10 -205z"/>
<path d="M5626 4656 c-374 -373 -375 -373 -286 -360 33 5 60 -1 60 -12 0 -11
-20 -15 -45 -10 -44 11 -44 11 -5 -20 46 -36 55 -29 358 284 89 92 174 180
188 195 24 24 18 34 -17 31 -7 -1 -8 25 -3 57 5 32 16 54 26 48 10 -6 18 6 18
27 0 22 20 53 45 71 25 17 37 31 26 32 -10 1 -174 -154 -365 -343z"/>
<path d="M3812 4916 c6 -9 1 -16 -11 -16 -13 0 -20 -33 -16 -80 3 -44 11 -80
18 -80 8 0 20 -29 28 -65 28 -133 329 -330 329 -215 0 11 -12 20 -26 20 -15 0
-44 14 -65 31 -37 30 -37 31 16 23 30 -5 55 -1 55 9 0 9 -27 17 -60 17 -40 0
-60 10 -60 30 0 17 -13 30 -30 30 -37 0 -39 -23 -5 -57 20 -20 18 -23 -11 -11
-27 10 -34 26 -25 61 8 32 3 47 -15 47 -50 0 -80 100 -43 141 18 20 28 45 21
55 -6 11 9 25 33 32 38 10 40 15 15 32 -35 23 -162 20 -148 -4z"/>
<path d="M2433 4621 c-89 -87 -156 -165 -148 -173 16 -15 115 89 115 121 0 10
12 2 27 -18 19 -26 31 -30 41 -14 8 13 5 23 -7 23 -14 0 -13 14 4 40 35 56 58
50 43 -12 -20 -77 -96 -151 -141 -136 -28 9 -30 7 -9 -8 23 -17 23 -26 -2 -62
-16 -23 -36 -36 -43 -29 -7 8 -13 1 -13 -15 0 -16 -18 -40 -40 -53 -48 -31
-50 -19 -8 46 20 30 24 49 10 49 -12 0 -22 -12 -22 -28 0 -15 -13 -38 -30 -52
-16 -13 -24 -34 -17 -45 7 -12 0 -31 -16 -43 -16 -12 -44 -44 -63 -71 -25 -36
-34 -41 -34 -17 0 18 -11 36 -25 41 -43 15 19 70 73 64 37 -4 45 3 37 32 -5
21 4 51 21 68 17 17 34 42 39 55 4 14 34 24 67 22 57 -4 57 -3 9 16 -48 19
-502 -388 -469 -421 6 -6 23 4 36 23 22 30 25 27 25 -26 0 -33 -6 -49 -14 -37
-10 18 -18 17 -28 0 -11 -17 -22 -17 -43 1 -23 19 -27 18 -18 -6 7 -17 -9 -44
-37 -66 -27 -20 -45 -48 -40 -61 5 -14 1 -30 -10 -37 -10 -7 -15 -30 -9 -52 6
-22 18 -35 27 -29 10 6 14 21 9 35 -19 56 58 164 120 168 33 2 44 -1 25 -7
-19 -5 -35 -19 -35 -30 0 -10 -9 -14 -20 -7 -11 7 -20 2 -20 -10 0 -13 -13
-36 -30 -53 -33 -33 -40 -67 -13 -67 9 0 28 23 43 50 15 28 33 50 40 50 40 0
94 81 85 128 -10 53 21 71 47 29 9 -14 5 -18 -9 -9 -14 9 -23 2 -23 -17 0 -17
4 -31 8 -31 9 0 602 590 702 698 l60 65 -56 -22 c-44 -16 -53 -15 -41 4 10 16
3 15 -20 -3 -19 -15 -40 -21 -48 -14 -8 8 -1 23 16 33 16 10 21 19 10 19 -10
0 -1 13 20 29 22 17 31 30 21 30 -9 1 -90 -70 -179 -158z"/>
<path d="M3564 4695 c-11 -14 -17 -50 -14 -80 4 -30 -1 -50 -11 -44 -9 5 -12
25 -5 42 30 78 -408 -341 -1230 -1178 l-127 -129 52 -33 c36 -24 62 -29 86
-15 60 32 1315 1303 1310 1324 -4 12 3 16 13 9 11 -6 25 -2 32 9 17 27 -7 100
-33 100 -11 0 -14 -19 -6 -43 9 -28 6 -38 -9 -28 -13 8 -23 -4 -24 -33 -2 -45
-2 -45 -17 4 -8 28 -7 66 3 85 20 41 10 46 -20 10z m-158 -241 c5 -14 -3 -48
-17 -75 -15 -27 -28 -38 -28 -24 -1 14 -10 25 -21 25 -11 0 -17 -20 -15 -44 3
-28 -11 -52 -40 -67 -25 -12 -39 -28 -33 -34 7 -7 -6 -8 -29 -2 -32 9 -38 3
-30 -29 6 -22 1 -45 -11 -53 -14 -8 -17 0 -11 23 7 20 -5 9 -25 -25 -23 -39
-49 -58 -71 -53 -19 4 -35 -3 -35 -16 0 -12 10 -16 23 -8 15 9 18 5 9 -9 -8
-13 -25 -18 -37 -10 -14 9 -17 2 -9 -21 8 -19 6 -29 -4 -23 -10 6 -23 -3 -30
-20 -6 -18 -20 -27 -30 -20 -9 6 -16 -5 -15 -24 2 -23 -28 -50 -85 -77 -52
-25 -78 -48 -65 -56 13 -8 23 -3 23 10 0 14 6 18 14 11 18 -18 -107 -133 -126
-116 -8 7 -8 -4 -1 -25 11 -31 9 -33 -14 -14 -23 19 -28 16 -26 -12 2 -27 -10
-35 -47 -31 -37 4 -43 0 -21 -14 23 -14 8 -38 -75 -117 -57 -55 -104 -91 -104
-82 0 10 -9 18 -19 18 -11 0 -15 -13 -9 -28 6 -15 2 -34 -9 -40 -13 -8 -19 9
-16 43 4 46 12 54 54 49 36 -4 42 -1 21 13 -23 16 -21 28 15 74 24 30 43 49
43 42 0 -7 90 77 201 186 110 109 195 180 188 157 -9 -27 -6 -36 9 -27 12 7
22 35 22 61 0 50 39 92 42 46 1 -14 8 -3 16 24 7 28 33 59 58 70 24 11 45 33
45 50 1 20 7 17 19 -10 15 -36 17 -34 19 14 1 56 94 163 125 144 9 -6 16 0 16
13 0 13 14 18 33 11 25 -10 28 -7 12 13 -22 26 19 84 43 60 7 -6 12 8 12 32 0
47 30 58 46 17z m-1058 -1087 c15 -39 3 -56 -27 -38 -12 8 -16 24 -8 35 8 14
4 16 -11 7 -18 -11 -15 -25 12 -56 32 -37 32 -40 2 -30 -18 7 -37 2 -42 -11
-6 -15 -15 -11 -24 12 -10 23 -2 50 21 75 43 48 61 49 77 6z"/>
<path d="M4240 4211 c0 -211 19 -271 88 -271 69 0 92 70 92 277 l0 203 -90 0
-90 0 0 -209z"/>
<path d="M1440 4209 c0 -211 19 -269 87 -269 80 0 93 35 93 254 l0 206 -90 0
-90 0 0 -191z"/>
<path d="M3903 3988 c-48 -48 -83 -98 -79 -111 5 -14 36 6 75 49 54 59 73 69
103 53 30 -16 35 -14 25 11 -6 16 -22 30 -34 31 -13 0 -6 13 16 30 26 19 29
28 10 26 -16 -2 -68 -42 -116 -89z"/>
<path d="M4024 3946 c-26 -5 -51 -22 -57 -38 -6 -15 -28 -28 -49 -28 -27 0
-33 -10 -24 -35 12 -32 10 -32 -24 -5 -34 27 -36 27 -24 -5 7 -19 5 -35 -4
-35 -10 0 -23 -22 -30 -48 -14 -57 -72 -87 -72 -37 0 52 -45 -3 -48 -59 -2
-31 -14 -45 -39 -43 -24 2 -32 -7 -25 -26 7 -16 3 -24 -8 -17 -11 7 -20 -2
-20 -19 0 -17 -8 -31 -19 -31 -44 0 -34 36 25 100 35 37 84 94 109 128 40 53
58 47 47 -14 -2 -10 7 -11 18 -4 12 7 16 31 9 52 -6 21 -2 38 10 38 11 0 21 9
21 20 0 11 -7 20 -15 20 -22 0 -605 -575 -605 -597 0 -10 -20 -32 -45 -48 -25
-17 -100 -85 -168 -152 l-122 -121 42 -36 c28 -24 34 -25 18 -5 -19 25 -16 38
14 64 60 51 65 -21 7 -85 -25 -27 -46 -61 -46 -74 0 -14 -13 -20 -30 -13 -20
7 -30 -1 -31 -26 -2 -34 -3 -34 -18 3 -20 50 12 117 50 103 17 -7 23 -1 16 18
-18 48 -167 -55 -167 -116 0 -22 29 -18 55 8 17 17 22 11 20 -25 -3 -57 -32
-102 -57 -87 -10 6 -18 -3 -18 -20 0 -17 -9 -31 -20 -31 -11 0 -20 -14 -20
-31 0 -19 -9 -26 -23 -17 -15 9 -18 5 -8 -11 18 -28 869 809 870 855 1 15 8
22 17 16 20 -12 228 196 214 215 -6 7 -4 8 4 3 20 -16 106 73 92 96 -7 11 -3
15 8 8 11 -7 67 37 125 97 58 60 102 108 98 106 -4 -1 -28 -6 -53 -11z m-464
-470 c0 -10 -8 -13 -18 -7 -10 6 -23 -3 -29 -19 -17 -43 -78 -38 -69 5 5 21
22 32 44 28 28 -4 34 3 24 28 -11 29 -8 31 18 9 16 -14 30 -33 30 -44z m-197
-170 c17 -21 18 -28 3 -19 -14 8 -42 -3 -65 -26 -25 -25 -31 -41 -16 -41 18
-1 17 -6 -3 -18 -16 -10 -42 -13 -58 -7 -20 8 -26 4 -16 -12 8 -13 -6 -49 -33
-81 -46 -54 -50 -55 -72 -20 -20 33 -12 46 62 99 47 34 85 68 84 75 0 8 14 11
30 7 17 -4 24 0 16 8 -8 9 -5 27 8 42 27 34 27 34 60 -7z m-263 -265 c0 -27
-10 -36 -30 -28 -27 10 -41 -23 -32 -78 5 -33 -20 -12 -37 30 -13 35 -8 53 26
80 56 45 73 44 73 -4z"/>
<path d="M365 3608 c-170 -175 -245 -266 -243 -295 1 -15 5 -14 11 2 6 14 19
25 30 25 11 0 14 -9 7 -20 -7 -11 -1 -20 14 -21 14 0 3 -14 -24 -31 -50 -31
-109 -126 -90 -145 12 -11 390 360 390 382 0 9 -24 10 -53 2 l-53 -13 38 51
c21 28 45 47 53 42 8 -5 10 3 4 18 -5 14 9 47 33 72 107 116 2 54 -117 -69z"/>
<path d="M4614 3641 c-19 -32 -73 -88 -119 -124 -47 -36 -100 -83 -119 -103
-19 -21 -42 -33 -52 -26 -10 6 -36 -9 -56 -33 l-38 -45 43 36 c37 31 44 32 54
5 7 -18 1 -31 -14 -31 -14 0 -56 -32 -93 -70 -38 -39 -80 -66 -94 -61 -32 12
-34 -13 -4 -43 15 -15 15 -26 -3 -37 -16 -10 -20 -7 -11 8 29 46 -24 21 -56
-26 -40 -62 -41 -95 -1 -41 26 33 34 35 48 11 15 -24 26 -20 59 20 22 27 41
38 41 24 1 -14 -7 -25 -17 -25 -9 0 -22 -23 -27 -52 -10 -50 -9 -50 56 15 36
37 61 74 56 82 -6 9 2 14 17 10 14 -3 24 7 21 21 -4 15 2 22 11 16 22 -13 330
296 336 337 2 17 -4 36 -14 42 -10 6 -5 37 12 69 51 99 21 118 -36 21z m-238
-369 c-121 -100 -136 -111 -135 -97 1 31 51 80 94 93 25 8 45 28 45 45 0 17
10 23 23 15 16 -10 7 -28 -27 -56z"/>
<path d="M5746 3608 c-24 -32 -49 -51 -57 -43 -8 8 -5 26 8 41 41 49 -32 31
-80 -19 -25 -27 -33 -47 -19 -47 13 0 19 -11 12 -25 -7 -14 1 -8 19 14 45 56
38 17 -11 -63 -24 -37 -37 -73 -31 -80 19 -19 74 36 60 59 -7 12 -4 16 7 9 11
-7 58 27 103 75 78 83 106 128 65 102 -10 -6 -22 -1 -26 12 -5 13 -27 -3 -50
-35z"/>
<path d="M1598 3432 c-4 -5 -7 -95 -5 -200 2 -123 -4 -187 -17 -179 -13 7 -15
-4 -7 -30 8 -26 5 -43 -8 -43 -12 0 -31 -22 -41 -50 -10 -27 -27 -50 -37 -50
-19 0 -110 -206 -133 -300 -10 -39 -8 -43 8 -20 12 17 22 45 22 63 0 44 159
280 180 267 9 -5 12 10 6 35 -8 36 -5 39 12 15 17 -24 22 -15 23 40 1 51 6 60
16 33 9 -21 13 63 11 186 -5 211 -10 253 -30 233z"/>
<path d="M2128 3041 c-181 -44 -322 -314 -203 -389 51 -32 100 6 131 100 57
173 304 168 304 -7 0 -48 49 -105 90 -105 39 0 90 57 90 100 0 186 -221 347
-412 301z"/>
<path d="M3634 3032 c-164 -60 -272 -249 -201 -351 53 -74 147 -40 147 54 0
182 280 187 317 6 27 -130 146 -134 159 -5 20 199 -223 368 -422 296z"/>
<path d="M5733 2660 c-129 -134 -197 -229 -137 -193 9 6 17 -7 19 -28 1 -22
-6 -39 -17 -39 -11 0 -15 -8 -9 -19 7 -10 -13 -41 -43 -69 -30 -28 -48 -57
-40 -65 30 -29 417 390 396 429 -22 42 3 96 36 75 31 -19 27 7 -7 40 -39 40
-28 47 -198 -131z"/>
<path d="M1625 2695 c3 -25 14 -51 24 -59 11 -7 -7 -24 -39 -36 -47 -18 -53
-26 -29 -41 24 -15 23 -18 -6 -19 -20 0 -35 -15 -35 -34 0 -24 26 -9 90 54 99
97 104 104 60 87 -27 -10 -41 23 -32 78 1 8 -7 15 -18 15 -11 0 -17 -20 -15
-45z"/>
<path d="M4410 2380 c-165 -165 -311 -295 -325 -290 -20 7 -21 0 -3 -33 15
-30 16 -38 0 -28 -41 25 -22 -22 26 -67 l48 -46 57 65 c31 35 55 72 52 81 -3
10 6 16 18 13 13 -3 35 16 48 41 13 26 31 45 39 43 26 -6 309 299 289 312 -11
6 -14 20 -8 31 6 10 19 14 27 9 8 -5 15 3 15 18 0 15 -12 23 -26 17 -15 -6
-27 -1 -27 10 0 11 12 24 27 30 21 8 63 94 46 94 -2 0 -138 -135 -303 -300z
m225 110 c0 -27 -8 -50 -19 -50 -10 0 -13 8 -7 19 6 10 4 23 -5 28 -8 6 -17
-8 -19 -31 -2 -23 -31 -70 -64 -105 -34 -35 -57 -68 -52 -73 5 -6 -12 -10 -39
-10 -27 0 -53 12 -59 27 -6 15 -3 22 7 16 10 -6 23 3 29 19 7 17 21 30 32 30
11 0 14 -15 7 -33 -9 -23 -5 -29 11 -19 12 8 23 35 23 60 0 61 20 77 57 47 26
-22 27 -20 8 15 -18 33 41 107 88 110 1 0 2 -22 2 -50z m-228 -236 c7 7 13 1
13 -12 0 -14 -11 -22 -25 -17 -14 5 -36 -6 -48 -23 -32 -43 -46 -23 -24 35 13
37 23 43 44 25 15 -12 33 -16 40 -8z m-140 -148 c-31 -25 -69 -46 -84 -46 -18
0 -23 -12 -14 -35 10 -25 7 -29 -8 -13 -28 27 -6 89 26 76 13 -5 35 20 48 55
21 55 28 60 56 36 30 -25 28 -32 -24 -73z"/>
<path d="M243 2432 c-90 -93 -135 -152 -115 -152 17 0 32 9 32 20 0 11 8 20
18 20 23 0 18 -66 -7 -84 -11 -7 -31 -4 -45 8 -19 15 -26 14 -26 -2 0 -12 10
-22 22 -22 12 0 17 -13 11 -29 -30 -78 42 -40 178 94 140 139 186 208 120 183
-20 -8 -30 7 -35 52 l-6 63 -147 -151z"/>
<path d="M1406 2440 c0 -71 4 -101 8 -65 5 36 5 94 0 130 -4 36 -8 7 -8 -65z"/>
<path d="M3927 2490 c5 -33 10 -76 11 -95 1 -19 12 -35 23 -35 26 0 7 140 -23
170 -14 14 -17 1 -11 -40z"/>
<path d="M3960 2319 c0 -12 14 -48 31 -82 18 -33 28 -72 22 -85 -5 -14 4 -25
20 -25 18 0 24 11 16 31 -6 18 -22 66 -35 107 -22 70 -54 102 -54 54z"/>
<path d="M2480 2290 c-59 -72 21 -307 143 -423 311 -291 841 -90 846 320 2
183 -120 182 -161 0 -85 -381 -668 -377 -668 5 0 108 -101 169 -160 98z"/>
<path d="M3630 1601 c-187 -192 -320 -333 -295 -312 25 20 45 30 45 21 0 -8
23 8 52 36 43 44 58 48 89 29 26 -17 30 -28 14 -38 -13 -8 -19 -19 -14 -25 6
-6 131 111 279 259 148 148 258 269 245 269 -12 0 -28 -9 -35 -20 -23 -37 -45
-21 -39 29 3 27 11 58 17 68 57 92 -72 -22 -358 -316z m321 238 c0 -40 -8 -57
-24 -51 -14 6 -21 -1 -16 -14 4 -13 -9 -46 -31 -74 -32 -41 -39 -43 -40 -15 0
19 -10 35 -23 35 -13 0 4 26 37 57 33 31 65 72 72 90 18 47 24 41 25 -28z
m-131 -167 c0 -32 -155 -192 -186 -192 -11 0 -15 -6 -8 -13 8 -7 4 -25 -9 -40
-26 -32 -117 -36 -117 -6 0 12 9 16 20 9 11 -7 20 0 20 15 0 42 94 122 127
109 16 -6 34 1 40 16 8 19 1 24 -20 16 -26 -10 -24 -3 5 31 20 24 49 43 64 43
14 0 21 9 14 20 -7 11 2 20 19 20 17 0 31 -12 31 -28z"/>
<path d="M4220 1909 c0 -30 156 -139 174 -122 5 5 -17 24 -50 41 -32 17 -64
44 -71 61 -11 29 -53 44 -53 20z"/>
<path d="M414 1543 c-162 -163 -294 -309 -293 -325 0 -20 6 -18 21 7 28 50 48
43 51 -17 3 -46 -3 -50 -50 -39 -29 7 -43 5 -30 -3 12 -9 26 -32 30 -52 5 -26
85 43 312 270 328 330 347 349 312 329 -13 -7 -27 5 -33 29 -8 28 -20 37 -38
27 -14 -9 -9 4 12 28 21 23 30 43 19 43 -10 0 -151 -133 -313 -297z"/>
<path d="M5060 930 c-467 -467 -839 -850 -825 -850 14 0 25 10 25 22 0 12 13
17 29 11 17 -7 44 7 63 33 l33 44 -10 -43 c-8 -35 -2 -42 27 -37 57 11 80 30
65 54 -7 12 -4 17 6 10 28 -17 254 216 257 264 2 22 -4 36 -12 31 -8 -5 -21
-1 -28 11 -7 11 -3 20 9 20 11 0 21 13 21 30 0 16 8 28 18 25 10 -3 19 2 20
10 3 26 71 89 86 81 8 -4 21 15 28 43 7 28 20 46 30 40 10 -6 18 -2 18 8 0 11
18 26 40 33 22 7 36 20 31 29 -5 8 12 36 40 62 27 25 50 38 50 27 1 -10 10 2
20 27 10 25 34 45 54 45 19 0 47 18 60 40 27 42 65 54 65 20 0 -11 -14 -20
-31 -20 -17 0 -25 -9 -18 -21 25 -41 71 -6 324 244 364 360 371 368 333 406
-17 17 -21 31 -10 31 11 0 16 14 9 30 -7 19 1 30 22 30 18 0 28 8 22 18 -6 10
0 23 14 29 17 7 16 10 -5 11 -17 1 -413 -380 -880 -848z"/>
<path d="M5170 746 c-42 -100 -120 -180 -203 -207 -37 -12 -68 -30 -70 -41 -2
-10 -4 -29 -5 -42 -1 -13 43 -46 98 -75 79 -40 112 -73 156 -156 70 -130 119
-139 165 -30 41 98 93 152 190 195 104 47 104 97 -2 150 -91 47 -146 103 -195
202 -48 96 -95 98 -134 4z"/>
<path d="M5835 657 c-113 -116 -119 -125 -78 -140 24 -9 43 -26 43 -39 0 -16
-9 -16 -30 2 -27 22 -28 19 -14 -19 14 -37 3 -60 -60 -125 -136 -141 -80 -108
73 45 82 81 141 153 130 159 -22 14 -18 120 5 120 9 0 16 18 16 40 0 22 13 40
29 40 16 0 34 9 41 20 38 62 -50 3 -155 -103z"/>
<path d="M1395 425 c-184 -185 -335 -344 -334 -355 0 -11 13 -3 29 18 16 21
41 32 59 25 17 -6 31 -5 31 3 0 8 29 14 65 14 41 0 63 9 60 25 -3 14 3 23 14
20 21 -6 521 478 521 505 0 10 -18 14 -40 10 -21 -4 -44 1 -51 11 -6 11 -1 19
11 19 12 0 17 9 10 20 -22 36 -37 24 -375 -315z"/>
<path d="M580 491 c-27 -15 -56 -23 -65 -18 -8 5 -15 0 -15 -12 0 -11 -18 -21
-40 -21 -22 0 -40 9 -40 19 0 11 16 15 35 8 28 -9 30 -7 6 10 -35 25 -140 -53
-248 -185 -86 -105 -95 -139 -19 -70 l54 48 -34 -54 c-42 -68 -42 -69 2 -81
25 -6 94 49 233 188 108 108 194 197 189 196 -4 0 -30 -13 -58 -28z"/>
<path d="M3720 481 c0 -10 -17 -15 -39 -11 -25 5 -35 -2 -29 -18 5 -14 -14
-35 -42 -48 -68 -31 -70 -31 -70 15 0 29 -47 -6 -180 -133 -99 -95 -179 -183
-178 -194 0 -12 6 -11 11 3 6 14 19 20 30 13 10 -6 33 0 50 14 33 28 111 41
96 16 -5 -8 -1 -21 11 -28 18 -11 29 15 22 55 -1 8 11 15 27 15 16 0 61 28
100 62 97 85 240 258 213 258 -12 0 -22 -8 -22 -19z"/>
<path d="M2500 453 c-65 -34 -385 -354 -370 -370 7 -6 19 -1 28 13 8 14 30 20
49 13 29 -12 41 5 37 52 -1 6 16 12 37 14 22 1 39 -10 39 -26 0 -16 7 -29 15
-29 32 0 329 315 309 328 -11 7 -24 4 -27 -6 -10 -26 -68 -36 -68 -12 1 11 8
18 17 15 10 -4 11 3 4 15 -15 25 -10 25 -70 -7z"/>
</g>
</svg>
